{"title":"All Quiet on the Western Front  (War Drama 1930)  Lew Ayres, Lou","uid":9519749,"size":612375910,"categoryP":"video","categoryS":"movies","magnet":"?xt=urn:btih:a942846a7dd40d13fc7a88f3429b8c955a4b1ee6&amp;dn=All+Quiet+on+the+Western+Front++%28War+Drama+1930%29++Lew+Ayres%2C+Lou&amp;tr=udp%3A%2F%2Ftracker.openbittorrent.com%3A80&amp;tr=udp%3A%2F%2Fopen.demonii.com%3A1337&amp;tr=udp%3A%2F%2Ftracker.coppersurfer.tk%3A6969&amp;tr=udp%3A%2F%2Fexodus.desync.com%3A6969","seeders":7,"leechers":3,"uploader":"BurtonW","files":1,"time":1390603993,"description":" &lt;a href=&quot;http://www.imdb.com/title/tt0020629/?ref_=nv_sr_1&quot; rel=&quot;nofollow&quot; target=&quot;_NEW&quot;&gt;http://www.imdb.com/title/tt0020629/?ref_=nv_sr_1&lt;/a&gt;\n\n\nA good quality Black &amp; White film.\n\n\nEnglish subtitles!\n\n\nStoryline:\n\n   This is an English language film (made in America) adapted from a novel by German author Erich Maria Remarque. The film follows a group of German schoolboys, talked into enlisting at the beginning of World War 1 by their jingoistic teacher. The story is told entirely through the experiences of the young German recruits and highlights the tragedy of war through the eyes of individuals. As the boys witness death and mutilation all around them, any preconceptions about &quot;the enemy&quot; and the &quot;rights and wrongs&quot; of the conflict disappear, leaving them angry and bewildered. This is highlighted in the scene where Paul mortally wounds a French soldier and then weeps bitterly as he fights to save his life while trapped in a shell crater with the body. The film is not about heroism but about drudgery and futility and the gulf between the concept of war and the actuality.\n\n\nTechnical info:\n\nGeneral:\n\nComplete name:                  : All Quiet on the Western Front  (War Drama 1930)  Lew Ayres, Louis Wolheim, John Wray.mp4\n\nFormat                         : MPEG-4\nFormat profile                 : Base Media / Version 2\nCodec ID                       : mp42\nFile size                      : 584 MiB\nDuration                       : 2h 13mn\nOverall bit rate mode          : Variable\nOverall bit rate               : 612 Kbps\nEncoded date                   : UTC 2014-01-24 08:22:30\nTagged date                    : UTC 2014-01-24 11:51:33\n\n\nVideo:\n\nID                             : 1\nFormat                         : AVC\nFormat/Info                    : Advanced Video Codec\nFormat profile                 : &lt;a class=&quot;__cf_email__&quot; href=&quot;/cdn-cgi/l/email-protection&quot; data-cfemail=&quot;eaa78b8384aaa6dec4da&quot;&gt;[email&amp;#160;protected]&lt;/a&gt;&lt;script cf-hash='f9e31' type=&quot;text/javascript&quot;&gt;\n/* &lt;![CDATA[ */!function(){try{var t=&quot;currentScript&quot;in document?document.currentScript:function(){for(var t=document.getElementsByTagName(&quot;script&quot;),e=t.length;e--;)if(t[e].getAttribute(&quot;cf-hash&quot;))return t[e]}();if(t&amp;&amp;t.previousSibling){var e,r,n,i,c=t.previousSibling,a=c.getAttribute(&quot;data-cfemail&quot;);if(a){for(e=&quot;&quot;,r=parseInt(a.substr(0,2),16),n=2;a.length-n;n+=2)i=parseInt(a.substr(n,2),16)^r,e+=String.fromCharCode(i);e=document.createTextNode(e),c.parentNode.replaceChild(e,c)}}}catch(u){}}();/* ]]&gt; */&lt;/script&gt;\nFormat settings, CABAC         : Yes\nFormat settings, ReFrames      : 16 frames\nCodec ID                       : avc1\nCodec ID/Info                  : Advanced Video Coding\nDuration                       : 2h 13mn\nBit rate mode                  : Variable\nBit rate                       : 464 Kbps\nWidth                          : 416 pixels\nHeight                         : 304 pixels\nDisplay aspect ratio           : 4:3\nFrame rate mode                : Variable\nFrame rate                     : 23.976 fps\nMinimum frame rate             : 23.256 fps\nMaximum frame rate             : 1 000.000 fps\nColor space                    : YUV\nChroma subsampling             : 4:2:0\nBit depth                      : 8 bits\nScan type                      : Progressive\nBits/(Pixel*Frame)             : 0.153\nStream size                    : 443 MiB (76%)\nWriting library                : x264 core 130 r2273 b3065e6\nEncoding settings              : Deleted\nEncoded date                   : UTC 2014-01-24 08:22:30\nTagged date                    : UTC 2014-01-24 11:51:33\nColor primaries                : BT.709\nTransfer characteristics       : BT.709\nMatrix coefficients            : BT.709\n\nAudio:\n\nID                             : 2\nFormat                         : AAC\nFormat/Info                    : Advanced Audio Codec\nFormat profile                 : LC\nCodec ID                       : 40\nDuration                       : 2h 13mn\nBit rate mode                  : Variable\nBit rate                       : 144 Kbps\nMaximum bit rate               : 183 Kbps\nChannel(s)                     : 2 channels\nChannel positions              : Front: L R\nSampling rate                  : 48.0 KHz\nCompression mode               : Lossy\nDelay relative to video        : 83ms\nStream size                    : 136 MiB (23%)\nLanguage                       : English\nEncoded date                   : UTC 2014-01-24 08:22:30\nTagged date                    : UTC 2014-01-24 11:51:32\n\nText:\n\nID                             : 3\nFormat                         : Timed text\nMuxing mode                    : sbtl\nCodec ID                       : tx3g\nDuration                       : 2h 12mn\nBit rate mode                  : Variable\nBit rate                       : 56 bps\nDelay relative to video        : 83ms\nStream size                    : 54.2 KiB (0%)\nLanguage                       : English\nEncoded date                   : UTC 2014-01-24 08:22:30\nTagged date                    : UTC 2014-01-24 11:51:31\n\n","torrent":{"xt":"urn:btih:a942846a7dd40d13fc7a88f3429b8c955a4b1ee6","amp;dn":"All+Quiet+on+the+Western+Front++%28War+Drama+1930%29++Lew+Ayres%2C+Lou","amp;tr":["udp%3A%2F%2Ftracker.openbittorrent.com%3A80","udp%3A%2F%2Fopen.demonii.com%3A1337","udp%3A%2F%2Ftracker.coppersurfer.tk%3A6969","udp%3A%2F%2Fexodus.desync.com%3A6969"],"infoHash":"a942846a7dd40d13fc7a88f3429b8c955a4b1ee6","infoHashBuffer":{"type":"Buffer","data":[169,66,132,106,125,212,13,19,252,122,136,243,66,155,140,149,90,75,30,230]},"announce":[],"urlList":[]}}